<svg width="32" height="32" viewBox="0 0 32 32" fill="none" xmlns="http://www.w3.org/2000/svg">
<path fill-rule="evenodd" clip-rule="evenodd" d="M0.81192 0.812896C1.4674 0.15742 2.53013 0.15742 3.18561 0.812896L15.9988 13.6261L28.8119 0.812896C29.4674 0.15742 30.5301 0.15742 31.1856 0.812896C31.8411 1.46837 31.8411 2.53111 31.1856 3.18658L18.3724 15.9997L31.1856 28.8129C31.8411 29.4684 31.8411 30.5311 31.1856 31.1866C30.5301 31.8421 29.4674 31.8421 28.8119 31.1866L15.9988 18.3734L3.18561 31.1866C2.53013 31.8421 1.46739 31.8421 0.811919 31.1866C0.156444 30.5311 0.156444 29.4684 0.811919 28.8129L13.6251 15.9997L0.81192 3.18658C0.156445 2.53111 0.156445 1.46837 0.81192 0.812896Z" fill="#B8B8B8"/>
</svg>
