<svg width="50" height="50" viewBox="0 0 50 50" fill="none" xmlns="http://www.w3.org/2000/svg">
<path d="M26.5135 13L26.1712 30.0248H23.7387L23.4144 13H26.5135ZM25 37C24.4474 37 23.973 36.8237 23.5766 36.4711C23.1922 36.1185 23 35.6887 23 35.1818C23 34.6749 23.1922 34.2452 23.5766 33.8926C23.973 33.5289 24.4474 33.3471 25 33.3471C25.5405 33.3471 26.009 33.5289 26.4054 33.8926C26.8018 34.2452 27 34.6749 27 35.1818C27 35.6887 26.8018 36.1185 26.4054 36.4711C26.009 36.8237 25.5405 37 25 37Z" fill="black"/>
<circle cx="25" cy="25" r="24" stroke="black" stroke-width="2"/>
</svg>
