<svg width="132" height="24" viewBox="0 0 132 24" fill="none" xmlns="http://www.w3.org/2000/svg">
<path d="M43.8152 11.7909L41.5195 18.9H38.2195L33.7717 6.07576H37.7891L40.0847 13.603L42.5239 6.07576H45.1065L47.5456 13.603L49.8412 6.07576H53.8586L49.4108 18.9H46.1108L43.8152 11.7909ZM62.6682 9.92303C63.1489 10.3342 63.4645 10.8152 63.6152 11.3727H58.163C58.3136 10.8152 58.6221 10.3342 59.0812 9.92303C59.5619 9.49788 60.1645 9.28182 60.8891 9.28182C61.6208 9.28182 62.2091 9.49788 62.6682 9.92303ZM62.8978 14.8576C62.783 15.0248 62.6323 15.1642 62.4386 15.2758C62.288 15.3873 62.0728 15.4918 61.8073 15.5824C61.5562 15.6591 61.2549 15.6939 60.8891 15.6939C60.1645 15.6939 59.5619 15.4918 59.0812 15.0806C58.6221 14.6694 58.3136 14.2233 58.163 13.7424H67.2021C67.2236 13.61 67.238 13.4706 67.2595 13.3242C67.281 13.1918 67.2954 13.0664 67.3169 12.9339C67.3384 12.7876 67.3456 12.6342 67.3456 12.4879C67.3456 11.4842 67.1734 10.5712 66.8291 9.75576C66.5062 8.91939 66.0471 8.21545 65.4517 7.63697C64.8778 7.04455 64.1962 6.58455 63.4143 6.27091C62.6323 5.95727 61.7858 5.79697 60.8891 5.79697C59.9493 5.79697 59.0741 5.97121 58.2491 6.32667C57.4456 6.66121 56.7354 7.13515 56.1256 7.74848C55.5158 8.34091 55.028 9.05182 54.6621 9.86727C54.3178 10.6688 54.1456 11.54 54.1456 12.4879C54.1456 13.4358 54.3178 14.3209 54.6621 15.1364C55.028 15.9379 55.5015 16.6418 56.0969 17.2552C56.7067 17.8476 57.4097 18.3215 58.1917 18.677C58.9952 19.0115 59.8489 19.1788 60.7456 19.1788C61.6065 19.1788 62.3741 19.0673 63.0412 18.8442C63.7299 18.6212 64.3326 18.3215 64.8491 17.9521C65.3656 17.5618 65.796 17.1227 66.1404 16.6418C66.4847 16.1609 66.743 15.6591 66.9152 15.1364L62.8978 14.8576ZM77.5541 14.7182C77.0017 15.2758 76.3202 15.5545 75.5167 15.5545C74.7132 15.5545 74.0317 15.2758 73.4793 14.7182C72.9269 14.1397 72.6471 13.4009 72.6471 12.4879C72.6471 11.5748 72.9269 10.843 73.4793 10.2855C74.0317 9.70697 74.7132 9.42121 75.5167 9.42121C76.3202 9.42121 77.0017 9.70697 77.5541 10.2855C78.1065 10.843 78.3862 11.5748 78.3862 12.4879C78.3862 13.4009 78.1065 14.1397 77.5541 14.7182ZM78.4436 18.5655C79.1897 18.2309 79.8426 17.7779 80.3949 17.1994C80.9689 16.607 81.4208 15.91 81.7436 15.1085C82.088 14.307 82.2602 13.4358 82.2602 12.4879C82.2602 11.54 82.088 10.6688 81.7436 9.86727C81.4208 9.06576 80.9689 8.38273 80.3949 7.80424C79.8426 7.21182 79.1897 6.75182 78.4436 6.43818C77.6975 6.10364 76.9156 5.93636 76.0906 5.93636C75.5956 5.93636 75.1365 5.99212 74.7132 6.10364C74.3115 6.21515 73.9671 6.34758 73.6802 6.49394C73.3358 6.66121 73.0417 6.84939 72.7906 7.05151V1.33636H68.9167V18.9H71.7862L72.3602 17.6455C72.6471 17.9033 72.9843 18.1403 73.3645 18.3424C73.6873 18.5306 74.0819 18.6979 74.541 18.8442C75.0002 18.9767 75.5167 19.0394 76.0906 19.0394C76.9156 19.0394 77.6975 18.8791 78.4436 18.5655ZM84.6132 4.06848C85.0508 4.4797 85.5602 4.68182 86.1341 4.68182C86.708 4.68182 87.203 4.4797 87.6262 4.06848C88.0639 3.64333 88.2862 3.14848 88.2862 2.59091C88.2862 2.03333 88.0639 1.55242 87.6262 1.14121C87.203 0.716061 86.708 0.5 86.1341 0.5C85.5602 0.5 85.0508 0.716061 84.6132 1.14121C84.1899 1.55242 83.9819 2.03333 83.9819 2.59091C83.9819 3.14848 84.1899 3.64333 84.6132 4.06848ZM87.9993 6.07576H84.1254V18.9H87.9993V6.07576ZM99.2193 14.7182C98.6669 15.2758 97.9854 15.5545 97.1819 15.5545C96.3784 15.5545 95.6969 15.2758 95.1445 14.7182C94.5921 14.1397 94.3123 13.4009 94.3123 12.4879C94.3123 11.5748 94.5921 10.843 95.1445 10.2855C95.6969 9.70697 96.3784 9.42121 97.1819 9.42121C97.9854 9.42121 98.6669 9.70697 99.2193 10.2855C99.7717 10.843 100.051 11.5748 100.051 12.4879C100.051 13.4009 99.7717 14.1397 99.2193 14.7182ZM96.2063 6.15939C95.7471 6.30576 95.3526 6.46606 95.0297 6.63333C94.6495 6.83545 94.3123 7.07242 94.0254 7.3303L93.4515 6.07576H90.5819V23.3606H94.4558V17.9242C94.7069 18.1264 95.001 18.3145 95.3454 18.4818C95.6323 18.6282 95.9767 18.7606 96.3784 18.8721C96.8017 18.9836 97.2608 19.0394 97.7558 19.0394C98.5808 19.0394 99.3628 18.8791 100.109 18.5655C100.855 18.2309 101.508 17.7779 102.06 17.1994C102.634 16.607 103.086 15.91 103.409 15.1085C103.753 14.307 103.925 13.4358 103.925 12.4879C103.925 11.54 103.753 10.6688 103.409 9.86727C103.086 9.06576 102.634 8.38273 102.06 7.80424C101.508 7.21182 100.855 6.75182 100.109 6.43818C99.3628 6.10364 98.5808 5.93636 97.7558 5.93636C97.1819 5.93636 96.6654 6.01303 96.2063 6.15939ZM109.342 15.8891C109.076 15.6452 108.94 15.3524 108.94 14.997C108.94 14.753 108.99 14.53 109.083 14.3279C109.198 14.1258 109.399 13.9445 109.686 13.7982C109.995 13.6518 110.403 13.5403 110.92 13.4636C111.458 13.373 112.132 13.3242 112.957 13.3242V13.8818C112.957 14.5858 112.728 15.1642 112.269 15.6103C111.831 16.0355 111.243 16.2515 110.518 16.2515C110.023 16.2515 109.629 16.133 109.342 15.8891ZM109.083 6.13152C108.416 6.33364 107.842 6.63333 107.362 7.02364C106.903 7.39303 106.53 7.85303 106.243 8.3897C105.956 8.91242 105.755 9.48394 105.64 10.1182L109.514 10.397C109.571 10.1739 109.679 9.97182 109.83 9.78364C109.966 9.63727 110.138 9.49788 110.346 9.36545C110.576 9.21909 110.87 9.14242 111.236 9.14242C111.731 9.14242 112.147 9.3097 112.47 9.64424C112.792 9.97879 112.957 10.4597 112.957 11.0939C111.444 11.0939 110.181 11.2055 109.17 11.4285C108.172 11.6306 107.369 11.9303 106.759 12.3206C106.149 12.69 105.705 13.15 105.439 13.6867C105.188 14.2094 105.066 14.7809 105.066 15.4152C105.066 16.4745 105.446 17.3458 106.214 18.0358C106.981 18.7048 108.079 19.0394 109.514 19.0394C110.088 19.0394 110.604 18.9767 111.063 18.8442C111.544 18.6979 111.953 18.5306 112.297 18.3424C112.699 18.1403 113.065 17.9033 113.388 17.6455L113.962 18.9H116.831V11.0939C116.831 10.3342 116.695 9.62333 116.43 8.97515C116.164 8.32697 115.777 7.76939 115.282 7.30242C114.801 6.82152 114.227 6.44515 113.56 6.18727C112.893 5.92939 112.161 5.79697 111.379 5.79697C110.518 5.79697 109.758 5.90848 109.083 6.13152ZM122.585 18.3424C122.377 18.9 122.068 19.3391 121.666 19.6527C121.265 19.9873 120.662 20.1545 119.859 20.1545V23.3606C119.995 23.3955 120.138 23.4233 120.289 23.4442C120.425 23.4652 120.555 23.4721 120.691 23.4721C120.841 23.493 120.999 23.5 121.15 23.5C122.377 23.5 123.367 23.1306 124.134 22.3848C124.916 21.66 125.648 20.4961 126.315 18.9L131.624 6.07576H127.463L124.593 14.0212L121.724 6.07576H117.563L122.585 18.3424ZM25.163 0.778788H21.576L27.3152 14.3697C24.8043 12.9758 18.7065 7.74848 16.5543 6.35455C13.2184 4.19394 11.3532 7.05151 11.8912 9.14242C12.1782 10.2576 13.326 14.2512 13.6847 15.7636C11.0519 14.4882 5.59255 11.5748 4.35864 11.2333C1.84777 10.5364 0.412984 11.5818 0.0542883 13.3242C-0.247016 14.7948 0.77168 17.6245 1.48907 18.9H5.43472L4.71733 17.5061C4.43038 16.9485 3.87798 15.4152 3.64124 14.7182C5.43472 15.4152 8.66298 16.9833 10.4565 17.8545C12.3289 18.7606 14.7608 20.6424 16.5543 18.9C17.6878 17.7988 17.2717 15.0667 16.913 14.0212C16.626 13.1848 16.0736 11.1148 15.8369 10.1879C18.111 12.0488 23.0826 16.0424 24.8043 17.1576C26.9565 18.5515 28.3912 19.597 30.1847 18.9C32.2078 18.1124 31.6195 15.7636 30.9021 14.0212C30.3282 12.6273 26.8345 4.61212 25.163 0.778788Z" fill="black"/>
</svg>
