<svg width="153" height="31" viewBox="0 0 153 31" fill="none" xmlns="http://www.w3.org/2000/svg">
<path d="M45.0815 8.37674H48.8435L50.7796 14.6832C51.0945 15.837 51.3935 17.1172 51.6611 18.4923C51.9028 17.1994 52.2396 15.9262 52.6685 14.6832L54.6833 8.37674H58.3509L60.3185 14.6832C60.4917 15.268 61.0898 17.4807 61.263 18.4607C61.4991 17.3543 61.9713 15.5999 62.2389 14.6832L64.1908 8.37674H68.0157L62.9472 23.0759H59.5787L57.5639 16.7063C56.9658 14.7622 56.6352 13.3713 56.525 12.6284C56.3676 13.3081 56.1 14.3512 55.3602 16.7695L53.3454 23.0759H49.8195L45.0815 8.37674Z" fill="black"/>
<path d="M69.7944 3.22413C69.7913 2.7865 69.9175 2.35778 70.1571 1.99217C70.3967 1.62656 70.7388 1.34049 71.1403 1.17013C71.5417 0.999777 71.9845 0.952785 72.4126 1.0351C72.8407 1.11741 73.2348 1.32534 73.5452 1.63258C73.8556 1.93982 74.0682 2.33258 74.1563 2.76119C74.2444 3.1898 74.2039 3.63501 74.04 4.04053C73.8761 4.44604 73.5961 4.79365 73.2355 5.03939C72.8748 5.28513 72.4497 5.41797 72.0139 5.42111C71.7239 5.4253 71.436 5.37156 71.1669 5.26303C70.8978 5.1545 70.6529 4.99334 70.4464 4.78891C70.2399 4.58449 70.0759 4.34088 69.964 4.07224C69.852 3.80361 69.7944 3.51532 69.7944 3.22413ZM70.2037 8.37674H73.8241V23.0759H70.2037V8.37674Z" fill="black"/>
<path d="M86.7472 11.6801H85.4093C82.7963 11.6801 81.175 13.071 81.175 15.9318V23.0759H77.5546V8.40836H80.9704L81.175 10.5421C81.7889 9.088 83.1898 8.10805 85.1417 8.10805C85.6831 8.11211 86.2221 8.18109 86.7472 8.31352V11.6801Z" fill="black"/>
<path d="M87.8333 15.7263C87.8333 11.1111 90.8398 7.91838 95.137 7.91838C99.4343 7.91838 102.299 10.874 102.299 15.4576V16.5482L91.2806 16.5798C91.5482 19.1719 92.9019 20.4838 95.3102 20.4838C97.2935 20.4838 98.6 19.7093 99.0093 18.3026H102.362C101.732 21.527 99.0722 23.4552 95.2472 23.4552C90.887 23.4552 87.8333 20.2783 87.8333 15.7263ZM91.375 14.2564H98.7102C98.7102 12.2333 97.325 10.9056 95.1528 10.9056C92.9806 10.9056 91.7213 12.0594 91.375 14.2564Z" fill="black"/>
<path d="M105.211 8.37674H108.548L108.784 10.6053C109.681 8.91413 111.602 7.91838 113.821 7.91838C117.945 7.91838 120.669 10.9372 120.669 15.5367C120.669 20.1361 118.181 23.4552 113.821 23.4552C111.633 23.4552 109.744 22.5859 108.816 21.1002V29.8881H105.211V8.37674ZM112.971 20.1835C115.521 20.1835 117.032 18.3342 117.032 15.7263C117.032 13.1184 115.521 11.2217 112.971 11.2217C110.421 11.2217 108.847 13.071 108.847 15.7263C108.847 18.3817 110.484 20.1835 112.971 20.1835Z" fill="black"/>
<path d="M122.888 18.8716C122.888 16.1689 124.856 14.4777 128.319 14.209L132.71 13.8771V13.5452C132.71 11.5537 131.514 10.7476 129.672 10.7476C127.547 10.7476 126.367 11.6485 126.367 13.1974H123.281C123.281 10.0047 125.894 7.91838 129.861 7.91838C133.828 7.91838 136.236 10.0679 136.236 14.1458V23.0759H133.056L132.789 20.8947C132.175 22.4121 130.192 23.4552 127.909 23.4552C124.793 23.4552 122.888 21.6376 122.888 18.8716ZM132.726 17.1172V16.3427L129.672 16.5798C127.421 16.7853 126.571 17.5282 126.571 18.7294C126.571 19.9306 127.453 20.7209 129.09 20.7209C131.309 20.7209 132.726 19.3774 132.726 17.1172Z" fill="black"/>
<path d="M138.094 26.8534H140.266C141.682 26.8534 142.564 26.5215 143.194 24.7987L143.603 23.6923L137.716 8.37674H141.525L145.303 19.0771L149.269 8.37674H153L145.822 26.3477C144.736 29.082 143.194 30.2042 140.785 30.2042C139.878 30.2128 138.974 30.1066 138.094 29.8881V26.8534Z" fill="black"/>
<path d="M6.51667 3.25574L0.425009 7.58647C0.29289 7.68206 0.185403 7.80794 0.111483 7.95364C0.0375633 8.09934 -0.000653999 8.26065 8.46774e-06 8.42416V25.8103C-0.000736959 26.1022 0.0798718 26.3885 0.232721 26.6369C0.38557 26.8852 0.604564 27.0857 0.864942 27.2156C1.12532 27.3455 1.4167 27.3997 1.70614 27.372C1.99557 27.3443 2.27152 27.2358 2.50279 27.0589L17.5982 16.6747V26.648C17.6015 26.935 17.6826 27.2156 17.8327 27.4599C17.9828 27.7041 18.1964 27.9027 18.4504 28.0343C18.7044 28.1659 18.9894 28.2255 19.2746 28.2068C19.5598 28.1882 19.8346 28.0918 20.0695 27.9282L39.7139 13.7981C39.8501 13.7017 39.9613 13.5739 40.038 13.4253C40.1147 13.2768 40.1547 13.1119 40.1546 12.9446V4.09344C40.1504 3.90076 40.0939 3.71289 39.9913 3.55007C39.8886 3.38725 39.7436 3.25565 39.5719 3.16947C39.4002 3.08328 39.2084 3.04576 39.0171 3.06097C38.8257 3.07617 38.6422 3.14352 38.4861 3.25574L24.1778 13.8297V4.09344C24.1771 3.90104 24.1234 3.71259 24.0227 3.54892C23.9219 3.38525 23.7781 3.25274 23.607 3.16605C23.436 3.07935 23.2444 3.04184 23.0534 3.05767C22.8625 3.0735 22.6796 3.14205 22.525 3.25574L8.18519 13.1342V4.09344C8.18099 3.90076 8.1245 3.71289 8.02181 3.55007C7.91912 3.38725 7.77413 3.25565 7.60246 3.16947C7.43079 3.08328 7.23895 3.04576 7.04762 3.06097C6.85628 3.07617 6.67271 3.14352 6.51667 3.25574Z" fill="black"/>
</svg>
