<svg width="52" height="40" viewBox="0 0 52 40" fill="none" xmlns="http://www.w3.org/2000/svg">
<path d="M9.38042 39.9115V37.2567C9.38042 36.2388 8.76082 35.5753 7.69879 35.5753C7.16787 35.5753 6.59261 35.7523 6.19433 36.3275C5.88473 35.8408 5.4423 35.5753 4.77856 35.5753C4.33593 35.5753 3.8937 35.7079 3.53955 36.1947V35.6638H2.61035V39.9115H3.53955V37.5663C3.53955 36.8143 3.93784 36.4602 4.55744 36.4602C5.17664 36.4602 5.48664 36.8585 5.48664 37.5663V39.9115H6.41585V37.5663C6.41585 36.8143 6.85807 36.4602 7.43333 36.4602C8.05293 36.4602 8.36253 36.8585 8.36253 37.5663V39.9115H9.38042ZM23.1413 35.6638H21.637V34.3806H20.7078V35.6638H19.8671V36.5043H20.7076V38.4514C20.7076 39.4249 21.1059 40 22.1679 40C22.5662 40 23.0084 39.8674 23.3184 39.6904L23.0528 38.8938C22.7873 39.0708 22.4777 39.1151 22.2564 39.1151C21.814 39.1151 21.637 38.8497 21.637 38.4071V36.5043H23.1413V35.6638ZM31.0175 35.5751C30.4866 35.5751 30.1327 35.8408 29.9113 36.1947V35.6638H28.9821V39.9115H29.9113V37.5222C29.9113 36.8143 30.2209 36.416 30.7962 36.416C30.9732 36.416 31.1945 36.4604 31.3715 36.5045L31.6369 35.6197C31.4599 35.5753 31.1945 35.5753 31.0175 35.5753V35.5751ZM19.1149 36.0177C18.6722 35.7079 18.0528 35.5753 17.3891 35.5753C16.3273 35.5753 15.6194 36.1062 15.6194 36.9469C15.6194 37.655 16.1503 38.0531 17.0795 38.1859L17.5219 38.2303C18.0087 38.3186 18.2742 38.4514 18.2742 38.6727C18.2742 38.9823 17.9202 39.2036 17.3006 39.2036C16.6812 39.2036 16.1944 38.9823 15.8846 38.7612L15.4422 39.4691C15.929 39.823 16.5927 40 17.2563 40C18.4953 40 19.2034 39.4249 19.2034 38.6284C19.2034 37.8761 18.6281 37.4779 17.743 37.3452L17.3006 37.3009C16.9023 37.2565 16.5927 37.1683 16.5927 36.9028C16.5927 36.593 16.9023 36.416 17.3891 36.416C17.9202 36.416 18.4511 36.6371 18.7166 36.77L19.1149 36.0177ZM43.8052 35.5753C43.2741 35.5753 42.9202 35.8408 42.6988 36.1947V35.6638H41.7696V39.9115H42.6988V37.5222C42.6988 36.8143 43.0086 36.416 43.5837 36.416C43.7609 36.416 43.9822 36.4604 44.1592 36.5045L44.4246 35.6197C44.2477 35.5753 43.9822 35.5753 43.8052 35.5753ZM31.9467 37.7877C31.9467 39.0708 32.8316 40 34.2034 40C34.8228 40 35.2652 39.8674 35.7077 39.5134L35.2652 38.7612C34.9113 39.0267 34.5574 39.1593 34.1591 39.1593C33.4068 39.1593 32.8759 38.6284 32.8759 37.7877C32.8759 36.9913 33.4068 36.4602 34.1591 36.416C34.5574 36.416 34.9113 36.5487 35.2652 36.8143L35.7077 36.0621C35.2652 35.7079 34.8228 35.5753 34.2034 35.5753C32.8316 35.5753 31.9467 36.5045 31.9467 37.7877ZM40.5308 37.7877V35.6638H39.6016V36.1947C39.2918 35.7966 38.8494 35.5753 38.2742 35.5753C37.0795 35.5753 36.1503 36.5045 36.1503 37.7877C36.1503 39.0708 37.0795 40 38.2742 40C38.8936 40 39.3362 39.7789 39.6016 39.3806V39.9115H40.5308V37.7877ZM37.1236 37.7877C37.1236 37.0354 37.6104 36.416 38.4068 36.416C39.159 36.416 39.6901 36.9913 39.6901 37.7877C39.6901 38.5399 39.159 39.1593 38.4068 39.1593C37.6104 39.1149 37.1236 38.5399 37.1236 37.7877ZM26.0176 35.5753C24.7786 35.5753 23.8935 36.4602 23.8935 37.7877C23.8935 39.1151 24.7784 40 26.0617 40C26.6811 40 27.3007 39.823 27.7875 39.4249L27.3449 38.7612C26.9909 39.0267 26.5485 39.2036 26.1061 39.2036C25.5308 39.2036 24.9555 38.9382 24.8227 38.1857H27.9645V37.832C28.0088 36.4602 27.2122 35.5753 26.0174 35.5753H26.0176ZM26.0176 36.3717C26.5926 36.3717 26.9911 36.7258 27.0794 37.3896H24.867C24.9555 36.8143 25.3538 36.3717 26.0176 36.3717ZM49.0706 37.7877V33.9824H48.1414V36.1947C47.8316 35.7966 47.3892 35.5753 46.8139 35.5753C45.6193 35.5753 44.6901 36.5045 44.6901 37.7877C44.6901 39.0708 45.6193 40 46.8139 40C47.4335 40 47.876 39.7789 48.1414 39.3806V39.9115H49.0706V37.7877ZM45.6636 37.7877C45.6636 37.0354 46.1502 36.416 46.9468 36.416C47.699 36.416 48.2299 36.9913 48.2299 37.7877C48.2299 38.5399 47.699 39.1593 46.9468 39.1593C46.1502 39.1149 45.6636 38.5399 45.6636 37.7877ZM14.6015 37.7877V35.6638H13.6723V36.1947C13.3625 35.7966 12.9201 35.5753 12.3448 35.5753C11.1501 35.5753 10.2209 36.5045 10.2209 37.7877C10.2209 39.0708 11.1501 40 12.3448 40C12.9644 40 13.4068 39.7789 13.6723 39.3806V39.9115H14.6015V37.7877ZM11.1501 37.7877C11.1501 37.0354 11.6369 36.416 12.4333 36.416C13.1855 36.416 13.7166 36.9913 13.7166 37.7877C13.7166 38.5399 13.1855 39.1593 12.4333 39.1593C11.6369 39.1149 11.1501 38.5399 11.1501 37.7877Z" fill="black"/>
<path d="M18.8057 3.40698H32.7437V28.4513H18.8057V3.40698Z" fill="#FF5F00"/>
<path d="M19.6904 15.9293C19.6904 10.8408 22.0797 6.32744 25.7522 3.407C23.0533 1.28314 19.6463 0 15.9295 0C7.12381 0 0 7.12381 0 15.9293C0 24.7345 7.12381 31.8585 15.9293 31.8585C19.6461 31.8585 23.0531 30.5754 25.7522 28.4513C22.0797 25.5752 19.6904 21.0177 19.6904 15.9293Z" fill="#EB001B"/>
<path d="M51.5491 15.9293C51.5491 24.7345 44.4252 31.8585 35.6198 31.8585C31.903 31.8585 28.496 30.5754 25.7969 28.4513C29.5137 25.5311 31.8589 21.0177 31.8589 15.9293C31.8589 10.8408 29.4693 6.32744 25.7969 3.407C28.4958 1.28314 31.903 0 35.6198 0C44.4252 0 51.5493 7.16815 51.5493 15.9293H51.5491Z" fill="#F79E1B"/>
</svg>
